<svg width="736" height="379" viewBox="0 0 736 379" fill="none" xmlns="http://www.w3.org/2000/svg">
<g clip-path="url(#clip0_53_2)">
<path d="M53.7138 103.116C76.6008 83.8862 109.002 85.0174 131.657 104.48C137.545 109.547 141.388 115.683 145.975 123.307L174.734 109.64C156.62 71.3657 114.735 50.7876 73.5016 59.0777C26.643 68.4991 -5.13851 112.073 0.687834 160.729C5.47597 200.723 36.4207 232.35 74.4314 239.478C114.766 247.039 154.931 228.073 173.867 190.558L145.355 175.837C133.934 198.042 112.597 210.315 87.6646 208.75C62.7167 207.185 42.4175 190.171 35.1655 168.771C26.9684 144.551 34.4992 119.294 53.7292 103.132L53.7138 103.116Z" fill="white"/>
<path d="M705.35 255.624L595.796 184.065L595.61 300.499L627.205 300.53L626.601 235.34L735.829 305.69L736 189.147L704.869 189.287L705.35 255.624Z" fill="white"/>
<path d="M735.985 133.41H189.982V166.524H735.985V133.41Z" fill="white"/>
</g>
<defs>
<clipPath id="clip0_53_2">
<rect width="735.52" height="378.02" fill="white"/>
</clipPath>
</defs>
</svg>
