<svg width="475" height="161" viewBox="0 0 475 161" fill="none" xmlns="http://www.w3.org/2000/svg">
<path d="M34.6639 29.5946C49.4339 17.1846 70.3439 17.9146 84.9639 30.4746C88.7639 33.7446 91.2439 37.7046 94.2039 42.6246L112.764 33.8046C101.074 9.10456 74.0439 -4.17544 47.4339 1.17456C17.1939 7.25456 -3.31611 35.3746 0.44389 66.7746C3.53389 92.5846 23.5039 112.995 48.0339 117.595C74.0639 122.475 99.9839 110.235 112.204 86.0246L93.8039 76.5246C86.4339 90.8546 72.6639 98.7746 56.5739 97.7646C40.4739 96.7546 27.3739 85.7746 22.6939 71.9646C17.4039 56.3346 22.2639 40.0346 34.6739 29.6046L34.6639 29.5946Z" fill="white"/>
<path d="M455.194 128.014L384.494 81.8345L384.374 156.974L404.764 156.994L404.374 114.924L474.864 160.324L474.974 85.1145L454.884 85.2045L455.194 128.014Z" fill="white"/>
<path d="M474.964 49.1445H122.604V70.5145H474.964V49.1445Z" fill="white"/>
</svg>
