<?xml version="1.0" encoding="UTF-8"?>
<svg id="LOGO" xmlns="http://www.w3.org/2000/svg" viewBox="0 0 841.89 595.28">
  <defs>
    <style>
      .cls-1 {
        fill: #fff;
      }
    </style>
  </defs>
  <g>
    <path class="cls-1" d="M469.3,361.49c-19.21-2.86-35.81-5.33-35.81-18.65,0-4.55,2.61-19.38,36.2-19.38,23.05,0,36.9,13.98,41.79,20l.57.7-.03-13.77c0-3.27-1.97-6.22-4.98-7.5-10.27-4.4-24.35-6.95-38.93-6.95s-47.2,2.95-47.2,30.26c0,23.35,23.92,26.97,47.04,30.46,19.71,2.97,38.32,5.79,38.32,21.22,0,21.36-31.22,23.03-40.79,23.03-18.75,0-38.88-8.81-45.82-20.05l-.58-.94-.15,13.6c-.04,3.35,1.98,6.41,5.08,7.67,12.17,4.93,25.38,7.25,41.08,7.25,9.45,0,23.07-1.03,34.25-5.92,12.94-5.66,19.49-15.08,19.49-27.99,0-25.66-26.33-29.57-49.56-33.03Z"/>
    <polygon class="cls-1" points="235.84 317.27 220.58 317.17 220.58 419.63 220.58 427.09 276.68 427.1 276.75 419.65 235.86 419.65 235.84 317.27"/>
    <polygon class="cls-1" points="557.71 366.87 616.45 366.87 616.45 359.41 557.71 359.41 557.71 324.64 639.13 324.64 639.13 317.17 546.4 317.17 542.45 317.15 542.45 317.17 542.44 317.17 542.44 324.64 542.45 324.64 542.45 359.41 542.44 359.41 542.44 366.87 542.45 366.87 542.44 419.61 542.44 427.07 639.13 427.07 639.2 419.62 557.72 419.63 557.71 366.87"/>
    <path class="cls-1" d="M120.61,328.77c13.54-8.98,31.05-8.11,43.78,1.85,6.49,5.07,12.01,13.87,15.45,23.01,1.36,3.6,5.1,5.7,8.9,5.08l9.44-1.54c-7.02-24.92-31.07-41.76-58.21-41.21-25.98.53-48.57,16.7-55.57,40.58-1.51,5.13-2.35,9.67-2.34,15.67,0,5.67.83,10.51,2.34,15.64,7,23.87,29.6,40.05,55.57,40.58,27.15.55,51.2-16.29,58.21-41.21l-9.44-1.54c-3.79-.62-7.54,1.48-8.9,5.08-3.45,9.15-8.96,17.94-15.45,23.01-12.73,9.95-30.24,10.83-43.78,1.85-14.55-9.65-21.07-26.95-21.08-43.42,0-16.97,6.53-33.77,21.08-43.42Z"/>
    <polygon class="cls-1" points="759.83 317.12 752.39 317.12 752.38 405.42 670.57 317.14 670.56 317.15 670.56 317.11 663.12 317.11 663.12 331.15 663.11 331.15 663.12 331.16 663.11 426.95 670.57 427.1 670.57 339.2 751.95 427.05 752.38 426.3 752.38 426.97 759.84 427.11 759.84 413.46 759.83 317.12"/>
    <path class="cls-1" d="M345.18,317.17h0s-8.18,0-8.18,0l-45.95,109.93,8.26-.08,17.57-42.08h52.66s16.95,42.09,16.95,42.09l15.27.02-44.31-109.88h-12.27ZM319.98,377.5l23.69-56.74,22.85,56.74h-46.55Z"/>
  </g>
  <g>
    <path class="cls-1" d="M271.36,484.75v2.79h-9.96v6.9h8.73v2.79h-8.73v9.21h-2.91v-21.69h12.87Z"/>
    <path class="cls-1" d="M293.77,500.75h-8.34l-2.31,5.7h-2.88l9.48-22.59h.18l9.48,22.59h-3.36l-2.25-5.7ZM292.78,498.23l-3.09-7.92-3.21,7.92h6.3Z"/>
    <path class="cls-1" d="M333.25,484.07v22.38h-2.88v-14.04l-7.98,11.31h-.06l-7.83-10.92v13.65h-2.82v-22.38h.03l10.68,15.12,10.83-15.12h.03Z"/>
    <path class="cls-1" d="M350.65,484.75v21.69h-2.91v-21.69h2.91Z"/>
    <path class="cls-1" d="M368.05,484.75v18.87h11.04v2.82h-13.95v-21.69h2.91Z"/>
    <path class="cls-1" d="M406.51,484.75l-8.13,14.46v7.23h-2.91v-7.23l-8.04-14.46h3.6l5.97,11.16,5.94-11.16h3.57Z"/>
    <path class="cls-1" d="M436.6,490.09c1-1.7,2.35-3.05,4.04-4.06s3.54-1.52,5.54-1.52,3.82.51,5.52,1.52c1.7,1.01,3.06,2.37,4.07,4.06,1.01,1.7,1.51,3.54,1.51,5.52s-.5,3.85-1.5,5.55c-1,1.7-2.35,3.04-4.06,4.04s-3.55,1.49-5.54,1.49-3.85-.49-5.55-1.47c-1.7-.98-3.04-2.32-4.04-4.01-.99-1.69-1.49-3.55-1.49-5.59s.5-3.82,1.5-5.52ZM439.18,499.75c.72,1.26,1.71,2.26,2.96,3,1.25.74,2.62,1.11,4.1,1.11s2.83-.36,4.06-1.09,2.2-1.73,2.91-3c.71-1.27,1.06-2.66,1.06-4.16s-.36-2.89-1.08-4.17c-.72-1.28-1.7-2.29-2.94-3.03-1.24-.74-2.6-1.11-4.08-1.11s-2.84.38-4.08,1.12-2.21,1.77-2.92,3.04-1.07,2.67-1.07,4.17.36,2.85,1.08,4.11Z"/>
    <path class="cls-1" d="M483.28,484.75v2.79h-9.96v6.9h8.73v2.79h-8.73v9.21h-2.91v-21.69h12.87Z"/>
    <path class="cls-1" d="M509.2,484.75v2.79h-9.96v6.9h8.73v2.79h-8.73v9.21h-2.91v-21.69h12.87Z"/>
    <path class="cls-1" d="M525.16,484.75v21.69h-2.91v-21.69h2.91Z"/>
    <path class="cls-1" d="M552.92,506.1c-1.07.39-2.24.58-3.5.58-2.22,0-4.18-.49-5.87-1.47-1.69-.98-2.99-2.3-3.9-3.96-.91-1.66-1.36-3.49-1.36-5.49,0-2.14.46-4.06,1.38-5.77s2.2-3.05,3.83-4.02c1.63-.97,3.47-1.46,5.53-1.46,1.22,0,2.36.16,3.42.48,1.06.32,2.01.74,2.85,1.26l-1.17,2.73c-1.66-1.12-3.33-1.68-5.01-1.68-1.4,0-2.7.37-3.89,1.11-1.19.74-2.14,1.75-2.85,3.02s-1.06,2.67-1.06,4.18.32,2.97.97,4.23c.65,1.26,1.58,2.25,2.79,2.96,1.21.71,2.6,1.07,4.18,1.07,1.94,0,3.63-.55,5.07-1.65l1.23,2.61c-.7.46-1.59.88-2.66,1.28Z"/>
    <path class="cls-1" d="M582.82,484.75v2.79h-11.19v6.6h9.99v2.79h-9.99v6.69h11.61v2.82h-14.52v-21.69h14.1Z"/>
  </g>
  <g>
    <path class="cls-1" d="M273.43,151.01c10.74-9.03,25.95-8.5,36.58.64,2.77,2.38,4.57,5.26,6.72,8.83l13.5-6.42c-8.5-17.97-28.16-27.62-47.52-23.73-22,4.42-36.91,24.87-34.18,47.71,2.25,18.77,16.77,33.62,34.61,36.96,18.93,3.55,37.79-5.35,46.67-22.96l-13.38-6.91c-5.36,10.43-15.37,16.19-27.08,15.45-11.71-.73-21.24-8.72-24.64-18.77-3.85-11.37-.31-23.22,8.71-30.81Z"/>
    <polygon class="cls-1" points="579.29 222.59 527.86 189.01 527.78 243.65 542.61 243.67 542.33 213.07 593.6 246.09 593.67 191.39 579.06 191.45 579.29 222.59"/>
    <rect class="cls-1" x="337.39" y="165.23" width="256.28" height="15.54"/>
  </g>
</svg>