<?xml version="1.0" encoding="UTF-8"?>
<svg id="LOGO" xmlns="http://www.w3.org/2000/svg" viewBox="0 0 841.89 377.5">
  <defs>
    <style>
      .cls-1 {
        fill: #fff;
      }
    </style>
  </defs>
  <g>
    <path class="cls-1" d="M469.3,155.08c-19.21-2.86-35.81-5.33-35.81-18.65,0-4.55,2.61-19.38,36.2-19.38,23.05,0,36.9,13.98,41.79,20l.57.7-.03-13.77c0-3.27-1.97-6.22-4.98-7.5-10.27-4.4-24.35-6.95-38.93-6.95s-47.2,2.95-47.2,30.26c0,23.35,23.92,26.97,47.04,30.46,19.71,2.97,38.32,5.79,38.32,21.22,0,21.36-31.22,23.03-40.79,23.03-18.75,0-38.88-8.81-45.82-20.05l-.58-.94-.15,13.6c-.04,3.35,1.98,6.41,5.08,7.67,12.17,4.93,25.38,7.25,41.08,7.25,9.45,0,23.07-1.03,34.25-5.92,12.94-5.66,19.49-15.08,19.49-27.99,0-25.66-26.33-29.57-49.56-33.03Z"/>
    <polygon class="cls-1" points="235.84 110.85 220.58 110.75 220.58 213.22 220.58 220.68 276.68 220.68 276.75 213.23 235.86 213.23 235.84 110.85"/>
    <polygon class="cls-1" points="557.71 160.45 616.45 160.45 616.45 152.99 557.71 152.99 557.71 118.22 639.13 118.22 639.13 110.75 546.4 110.75 542.45 110.73 542.45 110.75 542.44 110.75 542.44 118.22 542.45 118.22 542.45 152.99 542.44 152.99 542.44 160.45 542.45 160.45 542.44 213.19 542.44 220.65 639.13 220.65 639.2 213.2 557.72 213.21 557.71 160.45"/>
    <path class="cls-1" d="M120.61,122.35c13.54-8.98,31.05-8.11,43.78,1.85,6.49,5.07,12.01,13.87,15.45,23.01,1.36,3.6,5.1,5.7,8.9,5.08l9.44-1.54c-7.02-24.92-31.07-41.76-58.21-41.21-25.98.53-48.57,16.7-55.57,40.58-1.51,5.13-2.35,9.67-2.34,15.67,0,5.67.83,10.51,2.34,15.64,7,23.87,29.6,40.05,55.57,40.58,27.15.55,51.2-16.29,58.21-41.21l-9.44-1.54c-3.79-.62-7.54,1.48-8.9,5.08-3.45,9.15-8.96,17.94-15.45,23.01-12.73,9.95-30.24,10.83-43.78,1.85-14.55-9.65-21.07-26.95-21.08-43.42,0-16.97,6.53-33.77,21.08-43.42Z"/>
    <polygon class="cls-1" points="759.83 110.71 752.39 110.71 752.38 199 670.57 110.72 670.56 110.73 670.56 110.69 663.12 110.69 663.12 124.73 663.11 124.73 663.12 124.74 663.11 220.54 670.57 220.68 670.57 132.78 751.95 220.63 752.38 219.88 752.38 220.55 759.84 220.69 759.84 207.04 759.83 110.71"/>
    <path class="cls-1" d="M345.18,110.75h0s-8.18,0-8.18,0l-45.95,109.93,8.26-.08,17.57-42.08h52.66s16.95,42.09,16.95,42.09l15.27.02-44.31-109.88h-12.27ZM319.98,171.08l23.69-56.74,22.85,56.74h-46.55Z"/>
  </g>
  <g>
    <path class="cls-1" d="M272.47,274.81v2.79h-9.96v6.9h8.73v2.79h-8.73v9.21h-2.91v-21.69h12.87Z"/>
    <path class="cls-1" d="M294.88,290.8h-8.34l-2.31,5.7h-2.88l9.48-22.59h.18l9.48,22.59h-3.36l-2.25-5.7ZM293.89,288.28l-3.09-7.92-3.21,7.92h6.3Z"/>
    <path class="cls-1" d="M334.36,274.12v22.38h-2.88v-14.04l-7.98,11.31h-.06l-7.83-10.92v13.65h-2.82v-22.38h.03l10.68,15.12,10.83-15.12h.03Z"/>
    <path class="cls-1" d="M351.76,274.81v21.69h-2.91v-21.69h2.91Z"/>
    <path class="cls-1" d="M369.16,274.81v18.87h11.04v2.82h-13.95v-21.69h2.91Z"/>
    <path class="cls-1" d="M407.62,274.81l-8.13,14.46v7.23h-2.91v-7.23l-8.04-14.46h3.6l5.97,11.16,5.94-11.16h3.57Z"/>
    <path class="cls-1" d="M437.71,280.15c1-1.7,2.34-3.05,4.04-4.07,1.69-1.01,3.53-1.51,5.53-1.51s3.82.5,5.52,1.51c1.7,1.01,3.05,2.37,4.06,4.07,1.01,1.7,1.52,3.54,1.52,5.52s-.5,3.85-1.5,5.55c-1,1.7-2.36,3.04-4.07,4.03-1.71.99-3.55,1.49-5.54,1.49s-3.85-.49-5.55-1.47c-1.7-.98-3.04-2.31-4.04-4-.99-1.69-1.48-3.56-1.48-5.6s.5-3.82,1.5-5.52ZM440.29,289.81c.72,1.26,1.7,2.26,2.96,3,1.25.74,2.61,1.11,4.09,1.11s2.83-.37,4.06-1.09c1.23-.73,2.2-1.73,2.91-3s1.07-2.66,1.07-4.16-.36-2.89-1.08-4.17c-.72-1.28-1.7-2.29-2.94-3.03-1.24-.74-2.6-1.11-4.08-1.11s-2.84.38-4.08,1.12-2.21,1.77-2.92,3.04c-.71,1.28-1.06,2.67-1.06,4.17s.36,2.85,1.08,4.11Z"/>
    <path class="cls-1" d="M484.39,274.81v2.79h-9.96v6.9h8.73v2.79h-8.73v9.21h-2.91v-21.69h12.87Z"/>
    <path class="cls-1" d="M510.31,274.81v2.79h-9.96v6.9h8.73v2.79h-8.73v9.21h-2.91v-21.69h12.87Z"/>
    <path class="cls-1" d="M526.27,274.81v21.69h-2.91v-21.69h2.91Z"/>
    <path class="cls-1" d="M554.03,296.15c-1.07.39-2.23.59-3.5.59-2.22,0-4.17-.49-5.86-1.47-1.69-.98-2.99-2.3-3.9-3.96s-1.37-3.49-1.37-5.49c0-2.14.46-4.07,1.38-5.78s2.2-3.05,3.83-4.02c1.63-.97,3.47-1.46,5.54-1.46,1.22,0,2.36.16,3.42.48,1.06.32,2.01.74,2.85,1.26l-1.17,2.73c-1.66-1.12-3.33-1.68-5.01-1.68-1.4,0-2.7.37-3.88,1.11-1.19.74-2.14,1.74-2.85,3.01-.71,1.27-1.07,2.67-1.07,4.19s.33,2.97.97,4.23c.65,1.26,1.58,2.25,2.79,2.96,1.21.71,2.61,1.06,4.19,1.06,1.94,0,3.63-.55,5.07-1.65l1.23,2.61c-.7.46-1.58.89-2.66,1.27Z"/>
    <path class="cls-1" d="M583.93,274.81v2.79h-11.19v6.6h9.99v2.79h-9.99v6.69h11.61v2.82h-14.52v-21.69h14.1Z"/>
  </g>
</svg>